<mxfile host="app.diagrams.net" modified="2023-12-23T02:41:17.190Z" agent="Mozilla/5.0 (Macintosh; Intel Mac OS X 10_15_7) AppleWebKit/537.36 (KHTML, like Gecko) Chrome/120.0.0.0 Safari/537.36" etag="1uPRYhAfqJzwNuYji3HI" version="22.1.11" type="github">
  <diagram name="Page-1" id="l02rJ-nGcwPwZAvIl5rX">
    <mxGraphModel dx="737" dy="517" grid="1" gridSize="10" guides="1" tooltips="1" connect="1" arrows="1" fold="1" page="1" pageScale="1" pageWidth="850" pageHeight="1100" math="0" shadow="0">
      <root>
        <mxCell id="0" />
        <mxCell id="1" parent="0" />
        <mxCell id="EgQG1KGik4svzo0YR-Bh-3" value="" style="edgeStyle=orthogonalEdgeStyle;rounded=0;orthogonalLoop=1;jettySize=auto;html=1;" edge="1" parent="1" source="EgQG1KGik4svzo0YR-Bh-1" target="EgQG1KGik4svzo0YR-Bh-2">
          <mxGeometry relative="1" as="geometry" />
        </mxCell>
        <mxCell id="EgQG1KGik4svzo0YR-Bh-1" value="&lt;font style=&quot;font-size: 14px;&quot;&gt;&lt;b&gt;SCB-Dataset&lt;/b&gt;&lt;/font&gt;" style="rounded=1;whiteSpace=wrap;html=1;fillColor=#dae8fc;strokeColor=#6c8ebf;gradientColor=#efebeb;strokeWidth=0;" vertex="1" parent="1">
          <mxGeometry x="170" y="110" width="120" height="60" as="geometry" />
        </mxCell>
        <mxCell id="EgQG1KGik4svzo0YR-Bh-8" value="" style="edgeStyle=orthogonalEdgeStyle;rounded=0;orthogonalLoop=1;jettySize=auto;html=1;" edge="1" parent="1" source="EgQG1KGik4svzo0YR-Bh-2" target="EgQG1KGik4svzo0YR-Bh-4">
          <mxGeometry relative="1" as="geometry" />
        </mxCell>
        <mxCell id="EgQG1KGik4svzo0YR-Bh-2" value="&lt;font style=&quot;font-size: 14px;&quot;&gt;&lt;b&gt;Preprocessing&lt;/b&gt;&lt;/font&gt;" style="rounded=1;whiteSpace=wrap;html=1;fillColor=#dae8fc;strokeColor=none;gradientColor=#f3f1f1;" vertex="1" parent="1">
          <mxGeometry x="340" y="110" width="120" height="60" as="geometry" />
        </mxCell>
        <mxCell id="EgQG1KGik4svzo0YR-Bh-9" value="" style="edgeStyle=orthogonalEdgeStyle;rounded=0;orthogonalLoop=1;jettySize=auto;html=1;" edge="1" parent="1" source="EgQG1KGik4svzo0YR-Bh-4" target="EgQG1KGik4svzo0YR-Bh-5">
          <mxGeometry relative="1" as="geometry" />
        </mxCell>
        <mxCell id="EgQG1KGik4svzo0YR-Bh-4" value="&lt;font style=&quot;font-size: 14px;&quot;&gt;&lt;b&gt;YOLOv8 Model&lt;/b&gt;&lt;/font&gt;" style="rounded=1;whiteSpace=wrap;html=1;fillColor=#dae8fc;strokeColor=none;gradientColor=#e3e3e3;" vertex="1" parent="1">
          <mxGeometry x="340" y="220" width="120" height="60" as="geometry" />
        </mxCell>
        <mxCell id="EgQG1KGik4svzo0YR-Bh-10" value="" style="edgeStyle=orthogonalEdgeStyle;rounded=0;orthogonalLoop=1;jettySize=auto;html=1;" edge="1" parent="1" source="EgQG1KGik4svzo0YR-Bh-5" target="EgQG1KGik4svzo0YR-Bh-6">
          <mxGeometry relative="1" as="geometry" />
        </mxCell>
        <mxCell id="EgQG1KGik4svzo0YR-Bh-5" value="&lt;span style=&quot;font-size: 14px;&quot;&gt;&lt;b&gt;Model Training&lt;/b&gt;&lt;/span&gt;" style="rounded=1;whiteSpace=wrap;html=1;fillColor=#dae8fc;strokeColor=none;gradientColor=#ebebeb;" vertex="1" parent="1">
          <mxGeometry x="340" y="330" width="120" height="60" as="geometry" />
        </mxCell>
        <mxCell id="EgQG1KGik4svzo0YR-Bh-11" value="" style="edgeStyle=orthogonalEdgeStyle;rounded=0;orthogonalLoop=1;jettySize=auto;html=1;" edge="1" parent="1" source="EgQG1KGik4svzo0YR-Bh-6" target="EgQG1KGik4svzo0YR-Bh-7">
          <mxGeometry relative="1" as="geometry" />
        </mxCell>
        <mxCell id="EgQG1KGik4svzo0YR-Bh-6" value="&lt;span style=&quot;font-size: 14px;&quot;&gt;&lt;b&gt;Hyperparameter&lt;br&gt;Tuning&lt;/b&gt;&lt;br&gt;&lt;/span&gt;" style="rounded=1;whiteSpace=wrap;html=1;fillColor=#DAE8FC;strokeColor=none;gradientColor=#e8e8e8;" vertex="1" parent="1">
          <mxGeometry x="340" y="440" width="120" height="60" as="geometry" />
        </mxCell>
        <mxCell id="EgQG1KGik4svzo0YR-Bh-7" value="&lt;span style=&quot;font-size: 14px;&quot;&gt;&lt;b&gt;Model Evaluation&lt;/b&gt;&lt;/span&gt;" style="rounded=1;whiteSpace=wrap;html=1;fillColor=#dae8fc;strokeColor=none;gradientColor=#cfcfcf;" vertex="1" parent="1">
          <mxGeometry x="340" y="550" width="120" height="60" as="geometry" />
        </mxCell>
      </root>
    </mxGraphModel>
  </diagram>
</mxfile>
